<svg xmlns="http://www.w3.org/2000/svg" width="36" height="36" viewBox="0 0 36 36">
  <g id="Group_544" data-name="Group 544" transform="translate(-1304 -80)">
    <g id="Rectangle_3" data-name="Rectangle 3" transform="translate(1304 80)" fill="#9b7f46" stroke="#eee" stroke-width="1" opacity="0.22">
      <rect width="36" height="36" rx="10" stroke="none"/>
      <rect x="0.5" y="0.5" width="35" height="35" rx="9.5" fill="none"/>
    </g>
    <g id="noun-customer-care-2522719" transform="translate(1309.018 84.7)">
      <path id="Path_1" data-name="Path 1" d="M4.964,13.523a3.78,3.78,0,0,0,1.019,2.628,2.144,2.144,0,0,0,1.2.358,2.269,2.269,0,0,0,.787-.125.625.625,0,0,1,.7.089c.626.947,2.5,3.254,5.166,2.789a5.992,5.992,0,0,0,3.432-3.218c.215-.3.858.322.983.483a.737.737,0,0,1,.215.644,2.62,2.62,0,0,1-.483.876,5.985,5.985,0,0,1-1.144,1.269.6.6,0,0,1-.179.107.337.337,0,0,1-.34-.179,2.75,2.75,0,0,0-.232-.215,1.334,1.334,0,0,0-.751-.232,1.247,1.247,0,0,0-1.269,1.073.551.551,0,0,0-.018.179,1.293,1.293,0,0,0,2.449.536A7.889,7.889,0,0,0,19.48,16.42a.156.156,0,0,1,.143-.107c.876-.018,1.18-1.627,1.394-3.468a1.826,1.826,0,0,0-1.537-2.056c-.054-.018-.089-.018-.089-.072C18.5,7.07,16.262,5.425,12.973,5.3h-.018c-3.218,0-5.31,1.931-6.436,5.417a.178.178,0,0,1-.089.072c-1.466.5-1.537,1.055-1.484,2.682A.066.066,0,0,1,4.964,13.523Zm3.468-1.305a.122.122,0,0,1,.125-.125,3.24,3.24,0,0,0,2.592-2.306.144.144,0,0,1,.25-.036c1.269,1.77,2.646,2.5,5.935,2.36a.138.138,0,0,1,.143.125c.25,2.253-.983,5.524-3.7,6.454a2.372,2.372,0,0,1-1,.107C10.273,18.475,8.2,15.758,8.432,12.218Z" fill="#9b7f46"/>
    </g>
  </g>
</svg>
