<svg xmlns="http://www.w3.org/2000/svg" width="36" height="36" viewBox="0 0 36 36">
  <g id="Group_539" data-name="Group 539" transform="translate(-1304 -80)">
    <g id="Rectangle_3" data-name="Rectangle 3" transform="translate(1304 80)" fill="#9b7f46" stroke="#eee" stroke-width="1" opacity="0.22">
      <rect width="36" height="36" rx="10" stroke="none"/>
      <rect x="0.5" y="0.5" width="35" height="35" rx="9.5" fill="none"/>
    </g>
    <g id="noun-fire-truck-981899" transform="translate(1314.05 93.013)">
      <path id="Path_2" data-name="Path 2" d="M1.23,6.975h14.83V6.21H1.23v.765h0Zm13.444,2.17a.929.929,0,1,0,.93.93.93.93,0,0,0-.93-.93Zm0-.97a1.9,1.9,0,1,1-1.9,1.9,1.9,1.9,0,0,1,1.9-1.9h0Zm-10.787.97a.929.929,0,1,0,.93.93.929.929,0,0,0-.93-.93Zm0-.97a1.9,1.9,0,1,1-1.9,1.9,1.9,1.9,0,0,1,1.9-1.9ZM13.343.981V.671A.574.574,0,0,1,13.915.1h.4a.576.576,0,0,1,.573.573v.3c1.624-.006,2.419,4.852,2.636,6a4.767,4.767,0,0,0,.215.883A2.345,2.345,0,0,1,17.9,9.023a.673.673,0,0,1-.749.772H17a2.342,2.342,0,0,0-4.652,0H6.214a2.342,2.342,0,0,0-4.651-.01l-.6-.015A1.054,1.054,0,0,1,0,8.591a.574.574,0,0,1,.2-.519v-3.7a1.043,1.043,0,0,1,1.04-1.04h9.018V1.255a.27.27,0,0,1,.266-.268L13.343.981h0ZM5.8,3.15H9.508V1.014H5.8V3.15h0Zm-4.567,0H4.939V1.014H1.23V3.15ZM1.242.8h11.8V0H1.242V.8h0Zm14.4,4.39a.42.42,0,0,0,.415-.43c-.186-1.149-.515-2.67-1.55-2.669l-2.393.01a.161.161,0,0,0-.16.16V5.038a.16.16,0,0,0,.16.16l3.528,0Z" transform="translate(0)" fill="#9b7f46" fill-rule="evenodd"/>
    </g>
  </g>
</svg>
