<svg xmlns="http://www.w3.org/2000/svg" width="13.34" height="13.34" viewBox="0 0 13.34 13.34">
  <g id="Icon_akar-settings-vertical" data-name="Icon akar-settings-vertical" transform="translate(-3.75 -3.75)">
    <path id="Path_7" data-name="Path 7" d="M16.709,4.5V7.131m0,9.209V9.762M12.1,4.5v7.893m0,3.947V15.025M7.5,4.5V5.816m0,10.525V8.447" transform="translate(-1.684)" fill="none" stroke="#4b4e56" stroke-linecap="round" stroke-width="1.5"/>
    <path id="Path_8" data-name="Path 8" d="M26.816,13.131a1.316,1.316,0,1,1,1.316-1.316A1.316,1.316,0,0,1,26.816,13.131Z" transform="translate(-11.791 -3.369)" fill="none" stroke="#4b4e56" stroke-linecap="round" stroke-width="1.5"/>
    <path id="Path_9" data-name="Path 9" d="M16.316,25.131a1.316,1.316,0,1,1,1.316-1.316A1.316,1.316,0,0,1,16.316,25.131Z" transform="translate(-5.896 -10.107)" fill="none" stroke="#4b4e56" stroke-linecap="round" stroke-width="1.5"/>
    <path id="Path_10" data-name="Path 10" d="M5.816,10.131A1.316,1.316,0,1,1,7.131,8.816,1.316,1.316,0,0,1,5.816,10.131Z" transform="translate(0 -1.684)" fill="none" stroke="#4b4e56" stroke-linecap="round" stroke-width="1.5"/>
  </g>
</svg>
