<svg id="Icon_ion-eye" data-name="Icon ion-eye" xmlns="http://www.w3.org/2000/svg" width="12.653" height="8.435" viewBox="0 0 12.653 8.435">
  <path id="Path_94" data-name="Path 94" d="M16.874,15.187A1.687,1.687,0,1,1,15.187,13.5,1.687,1.687,0,0,1,16.874,15.187Z" transform="translate(-8.86 -10.969)" fill="#fff"/>
  <path id="Path_95" data-name="Path 95" d="M13.641,10.509a8.934,8.934,0,0,0-2.617-2.65A6.622,6.622,0,0,0,7.442,6.75,6.315,6.315,0,0,0,4.166,7.7a9.6,9.6,0,0,0-2.891,2.8.841.841,0,0,0-.017.937,8.807,8.807,0,0,0,2.591,2.653,6.53,6.53,0,0,0,3.593,1.1,6.65,6.65,0,0,0,3.59-1.1,8.8,8.8,0,0,0,2.612-2.66.849.849,0,0,0,0-.916ZM7.451,13.5a2.531,2.531,0,1,1,2.531-2.531A2.531,2.531,0,0,1,7.451,13.5Z" transform="translate(-1.124 -6.75)" fill="#fff"/>
</svg>
